<svg width="194" height="56" fill="none" xmlns="http://www.w3.org/2000/svg"><path d="M92.523 14.915V41h-7.252V26.607L80.35 41h-6.068l-4.958-14.504V41h-7.252V14.915h8.769l6.549 16.946 6.401-16.946h8.732zm2.944 15.688c0-2.146.382-4.02 1.147-5.624.79-1.603 1.85-2.837 3.182-3.7 1.357-.863 2.861-1.295 4.514-1.295 1.431 0 2.664.284 3.7.851s1.838 1.332 2.405 2.294v-2.886h7.252V41h-7.252v-2.886c-.567.962-1.381 1.727-2.442 2.294-1.036.567-2.257.851-3.663.851-1.653 0-3.157-.432-4.514-1.295-1.332-.863-2.393-2.097-3.182-3.7-.765-1.628-1.147-3.515-1.147-5.661zm14.948 0c0-1.332-.37-2.38-1.11-3.145-.715-.765-1.603-1.147-2.664-1.147-1.085 0-1.986.382-2.701 1.147-.715.74-1.073 1.788-1.073 3.145 0 1.332.358 2.393 1.073 3.182.715.765 1.616 1.147 2.701 1.147 1.061 0 1.949-.382 2.664-1.147.74-.765 1.11-1.825 1.11-3.182zm18.637-6.697c.814-1.184 1.8-2.121 2.96-2.812a7.176 7.176 0 013.737-1.036v7.733h-2.035c-1.579 0-2.751.308-3.515.925-.765.617-1.147 1.69-1.147 3.219V41H121.8V20.243h7.252v3.663zm12.959-5.587c-1.282 0-2.318-.345-3.108-1.036-.764-.715-1.147-1.603-1.147-2.664 0-1.085.383-1.986 1.147-2.701.79-.715 1.826-1.073 3.108-1.073 1.258 0 2.27.358 3.034 1.073.79.715 1.184 1.616 1.184 2.701 0 1.06-.394 1.949-1.184 2.664-.764.69-1.776 1.036-3.034 1.036zm3.589 1.924V41h-7.252V20.243h7.252zm2.946 10.36c0-2.146.444-4.02 1.332-5.624.888-1.603 2.122-2.837 3.7-3.7 1.604-.863 3.429-1.295 5.476-1.295 2.64 0 4.86.728 6.66 2.183 1.801 1.43 2.96 3.441 3.478 6.031h-7.696c-.444-1.357-1.307-2.035-2.59-2.035-.912 0-1.64.382-2.183 1.147-.518.74-.777 1.838-.777 3.293s.259 2.565.777 3.33c.543.765 1.271 1.147 2.183 1.147 1.308 0 2.171-.678 2.59-2.035h7.696c-.518 2.565-1.677 4.576-3.478 6.031-1.8 1.455-4.02 2.183-6.66 2.183-2.047 0-3.872-.432-5.476-1.295-1.578-.863-2.812-2.097-3.7-3.7-.888-1.603-1.332-3.49-1.332-5.661zm33.316 10.656c-2.072 0-3.935-.432-5.587-1.295a9.573 9.573 0 01-3.848-3.7c-.938-1.603-1.406-3.49-1.406-5.661 0-2.146.468-4.02 1.406-5.624a9.827 9.827 0 013.885-3.7c1.652-.863 3.515-1.295 5.587-1.295 2.072 0 3.922.432 5.55 1.295a9.523 9.523 0 013.885 3.7c.962 1.603 1.443 3.478 1.443 5.624 0 2.146-.481 4.033-1.443 5.661a9.523 9.523 0 01-3.885 3.7c-1.653.863-3.515 1.295-5.587 1.295zm0-6.29c1.011 0 1.85-.37 2.516-1.11.69-.765 1.036-1.85 1.036-3.256 0-1.406-.346-2.479-1.036-3.219-.666-.74-1.493-1.11-2.479-1.11-.987 0-1.813.37-2.479 1.11-.666.74-.999 1.813-.999 3.219 0 1.43.32 2.516.962 3.256.641.74 1.467 1.11 2.479 1.11z" fill="#fff"/><path fill-rule="evenodd" clip-rule="evenodd" d="M0 30.298v18.8h16.424v-2.66L0 30.298zm28.691 18.804h16.422v-18.8L28.695 46.443l-.004 2.659zM45.115 7.094l-22.51 22.127L0 7v19.12l22.605 22.221 22.506-22.123.004-19.124z" fill="#326CF9"/></svg>